<svg height="29" viewBox="0 0 104 29" width="104" xmlns="http://www.w3.org/2000/svg" xmlns:xlink="http://www.w3.org/1999/xlink"><mask id="a" fill="#fff"><path d="m.06.708h45.663v27.153h-45.663z" fill="#fff" fill-rule="evenodd"/></mask><mask id="b" fill="#fff"><path d="m.997.91h5.844v4.029h-5.844z" fill="#fff" fill-rule="evenodd"/></mask><g fill="none" fill-rule="evenodd"><g fill="#008bc0"><path d="m88.913 19.559c-.114-.083-.224-.171-.332-.263-.071-.058-.131-.09-.179-.094h-.199c-.022.001-.042.016.052.094.115.092.235.18.354.263.079.053.138.081.18.087h.177c.02-.004.032-.019-.053-.087zm3.152-5.663c.106-.011.163-.065.172-.163-.006-.165-.006-.331-.009-.498-.015-.102-.075-.157-.18-.167h-.527c-.105.01-.161.065-.169.167.008.167.012.333.022.498.014.098.074.152.18.163zm-4.195-8.344h-.377c-.079.01-.141.055-.181.143-.056.144-.11.289-.158.438-.024.092.002.139.078.152h.395c.083-.013.145-.06.179-.152.048-.149.094-.294.142-.438.02-.088-.005-.133-.078-.143zm-.774 12.117c-.061-.077-.119-.117-.183-.124h-.265c-.047.007-.045.047.008.124.094.122.19.243.287.36.066.072.126.11.181.116h.248c.047-.006.046-.042-.008-.116-.09-.117-.179-.238-.268-.36zm.71-2.05c-.034-.092-.096-.141-.179-.149h-.395c-.076.008-.102.057-.078.149.048.149.102.294.158.438.04.087.102.133.181.143h.377c.073-.01.098-.056.078-.143-.048-.144-.094-.289-.142-.438zm-1.124-6.935h.434c.092-.009.148-.064.172-.168.02-.166.047-.331.074-.497.01-.1-.028-.153-.116-.164h-.424c-.086.011-.142.064-.17.164-.031.166-.06.331-.086.497-.005.104.033.159.116.168zm3.014 5.049c-.016-.165-.03-.331-.044-.498-.02-.102-.076-.157-.181-.167h-.493c-.095.01-.146.065-.143.167.018.167.034.333.056.498.022.098.077.152.179.163h.48c.098-.011.146-.065.146-.163zm1.331 6.679c-.061-.036-.103-.055-.141-.059h-.152l-.01.004c.003.013.024.029.064.055.106.054.21.105.315.15.066.027.116.044.145.046h.118l.006-.002c-.008-.012-.02-.022-.066-.044-.091-.045-.185-.096-.279-.15zm-.105-.766h.247c.05-.006.06-.033.034-.087-.046-.083-.092-.171-.14-.263-.036-.058-.082-.09-.141-.094h-.283c-.023.001-.082.008-.036.094.058.092.113.18.173.263.044.053.092.081.146.087zm-1.431-3.446h.428c.085-.01.121-.056.116-.143-.029-.144-.058-.289-.084-.438-.022-.092-.082-.141-.177-.149h-.449c-.088.008-.124.057-.118.149.036.149.068.294.104.438.032.087.09.133.18.143zm-2.669-2.304h.424c.088-.011.126-.065.116-.163-.027-.165-.054-.331-.074-.498-.024-.102-.08-.157-.172-.167h-.434c-.083.01-.121.065-.116.167.026.167.055.333.086.498.028.098.084.152.17.163zm2.906 5.4c-.056-.058-.11-.09-.164-.094h-.253c-.044.004-.042.036.01.094.09.092.181.18.275.263.06.053.114.081.166.087h.219c.039-.006.038-.033-.012-.087-.078-.083-.162-.171-.241-.263zm-1.236-1.151h.307c.057-.006.07-.042.036-.116-.068-.117-.134-.238-.2-.36-.046-.077-.103-.117-.175-.124h-.333c-.064.007-.076.047-.04.124.074.122.152.243.226.36.051.072.111.11.179.116zm-4.714-10.29h-.232c-.049.011-.089.064-.121.164-.05.166-.094.331-.131.497-.023.104-.008.159.037.168h.233c.059-.009.096-.064.126-.168.036-.166.078-.331.122-.497.025-.1.012-.153-.034-.164zm-.088 5.38c-.03-.102-.067-.157-.126-.167h-.233c-.045.01-.06.065-.037.167.037.167.081.333.131.498.032.098.072.152.121.163h.232c.046-.011.059-.065.034-.163-.044-.165-.086-.331-.122-.498zm-.259-2.091c-.002-.088-.002-.177-.002-.27 0-.088 0-.178.002-.266-.002-.109-.03-.167-.082-.178h-.243c-.05.011-.074.069-.084.178 0 .088-.002.178-.002.266 0 .093.002.182.002.27.01.111.034.169.084.179h.243c.052-.01.08-.068.082-.179zm2.302-6.936c.046-.008.102-.048.172-.124.103-.123.215-.243.325-.36.061-.073.081-.11.051-.119h-.169c-.042.009-.095.047-.172.119-.111.117-.227.237-.336.36-.064.076-.084.116-.054.124zm-.257 2.077h.317c.07-.013.126-.06.169-.152.064-.149.13-.294.196-.438.034-.088.024-.133-.036-.143h-.305c-.066.01-.122.055-.173.143-.07.144-.14.289-.204.438-.038.092-.024.139.036.152zm-1.302 0h.216c.053-.013.102-.06.151-.152.074-.149.154-.294.234-.438.043-.09.049-.133.01-.143h-.21c-.046.01-.096.055-.152.143-.085.144-.165.289-.243.438-.041.092-.047.139-.006.152zm1.085 6.95c-.03-.102-.078-.157-.154-.167h-.348c-.068.01-.094.065-.08.167.034.167.071.333.112.498.031.098.081.152.151.163h.339c.072-.011.099-.065.082-.163-.036-.165-.074-.331-.102-.498zm-.335-2.805h-.357c-.069.011-.11.069-.119.178-.005.088-.005.178-.005.266 0 .093 0 .182.005.27.009.111.05.169.119.179h.357c.074-.01.114-.068.121-.179-.003-.088-.003-.177-.003-.27 0-.088 0-.178.003-.266-.007-.109-.047-.167-.121-.178zm.893 5.77h.305c.06-.01.07-.056.036-.143-.066-.144-.132-.289-.194-.438-.045-.092-.101-.141-.171-.149h-.317c-.06.008-.074.057-.036.149.064.149.134.294.204.438.051.087.107.133.173.143zm.088 1.469c-.07-.077-.126-.117-.172-.124h-.183c-.03.007-.01.047.054.124.109.122.225.243.336.36.077.072.13.11.172.116h.169c.03-.006.01-.042-.051-.116-.11-.117-.222-.238-.325-.36zm-1.364-2.05c-.049-.092-.098-.141-.151-.149h-.216c-.041.008-.035.057.006.149.078.149.158.294.243.438.056.087.106.133.152.143h.21c.039-.01.033-.055-.01-.143-.08-.144-.16-.289-.234-.438zm.738-7.764h-.339c-.07.011-.12.064-.151.164-.041.166-.078.331-.112.497-.014.104.012.159.08.168h.348c.076-.009.124-.064.154-.168.028-.166.066-.331.102-.497.017-.1-.01-.153-.082-.164zm1.851 3.289c0-.088 0-.177 0-.27 0-.088 0-.178 0-.266-.006-.109-.057-.167-.147-.178h-.444c-.086.011-.14.069-.15.178 0 .088-.002.178-.002.266 0 .093.002.182.002.27.01.111.064.169.15.179h.444c.09-.01.141-.068.147-.179zm3.301 6.525c-.032-.077-.081-.117-.163-.124h-.377c-.076.007-.1.047-.08.124.048.122.096.243.142.36.038.072.093.11.168.116h.348c.068-.006.096-.044.078-.116-.038-.117-.078-.238-.116-.36zm10.265-2.199h-.285c-.063.008-.115.057-.161.149-.07.149-.137.294-.208.438-.039.087-.031.133.025.143h.269c.06-.01.113-.056.167-.143.074-.144.147-.289.218-.438.037-.092.029-.141-.025-.149zm-1.034-2.402h-.423c-.09.01-.145.065-.169.167-.026.167-.054.333-.086.498-.008.098.028.152.112.163h.413c.087-.011.139-.065.167-.163.034-.165.066-.331.095-.498.008-.102-.029-.157-.109-.167zm-1.831 6.134h-.182c-.046.004-.102.036-.18.094-.113.092-.231.18-.35.263-.06.048-.084.071-.076.083l.01.004h.159c.04-.006.098-.034.18-.087.125-.083.251-.171.375-.263.069-.058.091-.09.064-.094zm.589 0c-.034.004-.088.036-.175.094-.138.092-.273.18-.413.263-.076.048-.103.071-.109.083l.006.004h.097c.029-.006.088-.035.178-.087.143-.083.285-.171.422-.263.054-.035.106-.072.11-.093l-.004-.001zm1.045-1.657h-.239c-.061.007-.118.047-.18.124-.092.122-.187.243-.285.36-.055.074-.064.11-.02.116h.221c.05-.006.11-.044.176-.116.106-.117.207-.238.305-.36.058-.077.064-.117.022-.124zm.787 0c-.04.007-.093.047-.166.124-.105.122-.219.243-.333.36-.057.063-.081.097-.073.116h.145c.034-.006.09-.044.162-.116.117-.117.235-.238.345-.36.042-.046.081-.096.075-.121l-.01-.003zm2.715-6.937c-.008-.109-.028-.167-.07-.178h-.199c-.042.011-.062.069-.066.178.004.088.004.178.004.266 0 .093 0 .182-.004.27.004.111.024.169.066.179h.199c.042-.01.062-.068.07-.179 0-.088 0-.177 0-.27 0-.088 0-.178 0-.266zm-.298 2.46h-.193c-.043.01-.081.065-.109.167-.04.167-.084.333-.127.498-.025.098-.02.152.017.163h.194c.041-.011.075-.065.105-.163.052-.165.094-.331.135-.498.02-.102.013-.157-.022-.167zm-1.131-7.373c-.056-.088-.104-.133-.142-.143h-.169c-.032.01-.026.053.023.143.084.144.162.289.24.438.05.092.1.139.141.152h.178c.029-.013.022-.06-.024-.152-.082-.149-.162-.294-.247-.438zm-1.035 0c-.054-.088-.107-.133-.167-.143h-.269c-.056.01-.064.055-.025.143.071.144.138.289.208.438.046.092.098.139.161.152h.285c.054-.013.062-.06.025-.152-.071-.149-.144-.294-.218-.438zm.897 8.038c.042-.165.082-.331.118-.498.016-.102-.004-.157-.068-.167h-.313c-.066.01-.112.065-.14.167-.033.167-.069.333-.109.498-.018.098.004.152.066.163h.306c.062-.011.111-.065.14-.163zm.409 1.737h-.178c-.041.008-.091.057-.141.149-.078.149-.157.294-.24.438-.049.088-.055.133-.023.143h.169c.038-.01.086-.056.142-.143.085-.144.165-.289.247-.438.046-.092.053-.141.024-.149zm-5.581 2.559c.055-.117.107-.238.161-.36.024-.077-.004-.117-.079-.124h-.397c-.084.007-.14.047-.176.124-.046.122-.088.243-.132.36-.019.074.004.11.079.116h.364c.078-.006.138-.044.18-.116zm-2.889 2.324c-.035.004-.063.023-.077.059-.018.054-.038.105-.054.15-.01.03 0 .044.028.046h.141c.028-.002.056-.017.082-.046.032-.045.065-.096.098-.15.018-.036.005-.055-.031-.059zm-.669-19.209h-.14c-.03.003-.052.018-.072.046-.025.046-.051.096-.077.154-.012.034 0 .05.035.056h.186c.036-.004.06-.022.07-.056.01-.058.021-.108.032-.154.006-.028-.005-.043-.034-.046zm-.068 19.209h-.186c-.035.004-.047.023-.035.059.026.054.052.105.077.15.02.029.042.044.072.046h.14c.029-.002.04-.016.034-.046-.011-.045-.022-.096-.032-.15-.01-.036-.034-.055-.07-.059zm-.787.059c-.038-.036-.072-.055-.11-.059h-.171c-.014 0-.044.008.007.059.068.054.134.105.204.15.044.027.082.044.111.046h.132c.016 0 .028-.012-.01-.046-.056-.045-.11-.096-.163-.15zm.733-.853c-.012-.083-.022-.171-.03-.263-.016-.058-.047-.09-.113-.094h-.303c-.058.004-.086.036-.078.094.02.092.041.18.065.263.02.053.058.081.115.087h.261c.057-.006.083-.034.083-.087zm1.469-.263c.012-.058-.012-.09-.074-.094h-.309c-.061.004-.099.036-.119.094-.014.092-.03.18-.044.263-.006.053.018.081.073.087h.268c.056-.006.096-.034.119-.087.028-.083.056-.171.086-.263zm.63-3.239c.018-.144.036-.289.052-.438 0-.092-.05-.141-.146-.149h-.488c-.1.008-.155.057-.171.149-.008.149-.018.294-.028.438.004.087.051.133.143.143h.467c.095-.01.153-.056.171-.143zm2.151 3.145h-.245c-.056.004-.11.036-.17.094-.089.092-.179.18-.271.263-.05.054-.056.081-.016.087h.211c.048-.006.106-.034.173-.087.102-.083.2-.171.298-.263.058-.058.059-.09.02-.094zm-5.099-3.002h.458c.092-.01.142-.056.148-.143-.006-.144-.012-.289-.016-.438-.014-.092-.068-.141-.167-.149h-.48c-.097.008-.144.057-.146.149.012.149.025.294.038.438.02.087.073.133.165.143zm5.252-.73h-.471c-.097.008-.161.057-.189.149-.03.149-.062.294-.091.438-.014.087.024.133.115.143h.449c.095-.01.157-.056.191-.143.04-.144.076-.289.114-.438.016-.092-.026-.141-.118-.149zm-2.685 4.883c-.044.004-.081.023-.125.059-.062.054-.124.105-.186.15-.038.03-.041.044-.018.046h.138c.032-.002.073-.019.121-.046.078-.045.154-.096.228-.15.022-.018.066-.054.02-.059zm.991.004v-.003l-.008-.001h-.147c-.037.004-.084.023-.152.059-.102.054-.205.105-.311.15-.064.032-.066.039-.068.046h.118c.03-.002.078-.019.151-.046.118-.045.229-.096.343-.15.044-.026.068-.042.074-.055zm.506-.004c-.03.004-.083.023-.171.059-.132.054-.269.105-.403.15-.098.034-.102.038-.109.046h.084c.015-.001.057-.012.171-.046.143-.045.287-.096.428-.15.096-.042.102-.048.112-.058l-.004-.001zm-6.964-16.748h-.307c-.068.009-.128.047-.179.119-.074.117-.152.237-.226.36-.036.076-.024.116.04.124h.331c.074-.008.131-.048.177-.124.066-.123.132-.243.2-.36.034-.073.021-.11-.036-.119zm7.516 1.947c-.091.01-.129.055-.115.143.029.144.061.289.091.438.028.092.092.139.189.152h.471c.092-.013.134-.06.118-.152-.038-.149-.074-.294-.114-.438-.034-.088-.096-.133-.191-.143zm1.079 12.593h.296c.066-.006.124-.044.184-.116.082-.117.162-.238.241-.36.042-.077.036-.117-.026-.124h-.322c-.075.007-.132.047-.184.124-.07.122-.143.243-.219.36-.038.072-.03.11.03.116zm-1.282-15.953c.092.084.182.171.271.264.06.059.114.087.174.095h.241c.039-.008.038-.037-.02-.095-.098-.093-.196-.18-.298-.264-.067-.051-.125-.08-.173-.084h-.211c-.04.004-.034.03.016.084zm-.618.264c-.068-.093-.135-.18-.201-.264-.046-.051-.096-.08-.153-.084h-.26c-.052.004-.064.03-.034.084.056.084.112.171.162.264.042.058.092.087.156.095h.296c.058-.008.07-.037.034-.095zm2.621 1.628c-.079-.123-.159-.243-.241-.36-.06-.072-.118-.11-.184-.119h-.296c-.06.009-.068.047-.03.119.076.117.149.237.219.36.052.076.109.116.184.124h.322c.062-.008.068-.048.026-.124zm-1.726 0c-.054-.123-.106-.243-.161-.36-.042-.072-.102-.11-.18-.119h-.364c-.075.009-.098.046-.079.119.044.117.086.237.132.36.036.076.092.116.176.124h.397c.075-.008.103-.048.079-.124zm-1.509 15.562h.26c.057-.006.107-.034.153-.087.066-.083.133-.171.201-.263.036-.058.024-.09-.034-.094h-.296c-.064.004-.114.036-.156.094-.05.092-.106.18-.162.263-.03.054-.018.081.034.087zm-.732-5.75h.523c.109-.011.167-.065.185-.163.01-.165.021-.331.026-.498-.005-.102-.06-.157-.169-.167h-.532c-.11.01-.172.065-.184.167-.008.167-.012.333-.016.498.004.098.062.152.167.163zm.062-2.573h.545c.111-.01.171-.068.183-.179.002-.088.002-.177.002-.27 0-.088 0-.178-.002-.266-.012-.109-.072-.167-.183-.178h-.545c-.111.011-.171.069-.183.178v.266.27c.012.111.072.169.183.179zm1.382-9.979c.088.034.141.052.171.056h.108l.002-.006c-.018-.013-.052-.028-.11-.05-.141-.058-.285-.108-.428-.154-.114-.034-.156-.045-.171-.046-.028 0-.059 0-.084.003.014.01.034.02.109.043.134.046.271.096.403.154zm.454 0c.106.035.158.052.182.056.024 0 .045 0 .067-.003-.022-.011-.105-.041-.141-.053-.161-.058-.325-.108-.486-.154-.136-.04-.174-.045-.184-.046l-.052.001c.012.005.04.014.144.045.157.046.315.096.47.154zm-1.375 6.511h-.523c-.105.011-.163.064-.167.164.004.166.008.331.016.497.012.104.074.159.184.168h.532c.109-.009.164-.064.169-.168-.005-.166-.016-.331-.026-.497-.018-.1-.076-.153-.185-.164zm2.448-5.663c.119.084.237.171.35.264.078.059.134.087.18.095h.182c.017-.002.033-.017-.064-.095-.124-.093-.25-.18-.375-.264-.082-.051-.14-.08-.18-.084h-.169c-.008.015.016.038.076.084zm2.268 9.131h.434c.086-.01.13-.068.142-.179.002-.088.002-.177.002-.27 0-.088 0-.178-.002-.266-.012-.109-.056-.167-.142-.178h-.434c-.088.011-.138.069-.143.178v.266.27c.005.111.055.169.143.179zm.699-7.239c.073.076.126.116.166.124h.145l.01-.003c.006-.024-.033-.076-.075-.121-.11-.123-.228-.243-.345-.36-.072-.072-.128-.11-.162-.119h-.137l-.008.002c-.008.02.016.053.073.117.114.117.228.237.333.36zm1.247 7.239h.318c.062-.01.098-.068.11-.179 0-.088.002-.177.002-.27 0-.088-.002-.178-.002-.266-.012-.109-.048-.167-.11-.178h-.318c-.07.011-.104.069-.108.178.002.088.002.178.002.266 0 .093 0 .182-.002.27.004.111.038.169.108.179zm-4.593 2.573h.505c.101-.011.163-.065.189-.163.022-.165.041-.331.061-.498.002-.102-.047-.157-.153-.167h-.516c-.108.01-.168.065-.19.167-.013.167-.028.333-.048.498-.002.098.046.152.152.163zm5.627-5.38c.028.104.066.159.109.168h.193c.035-.009.042-.064.022-.168-.041-.166-.083-.331-.135-.497-.03-.1-.064-.153-.105-.164h-.194c-.037.011-.042.064-.017.164.043.166.087.331.127.497zm-1.37 0c.028.104.074.159.14.168h.313c.064-.009.084-.064.068-.168-.036-.166-.076-.331-.118-.497-.029-.1-.078-.153-.14-.164h-.306c-.062.011-.084.064-.066.164.04.166.076.331.109.497zm-2.013-.497c.032.166.06.331.086.497.024.104.079.159.169.168h.423c.08-.009.117-.064.109-.168-.029-.166-.061-.331-.095-.497-.028-.1-.08-.153-.167-.164h-.413c-.084.011-.12.064-.112.164zm.15-1.886c-.054-.149-.114-.294-.174-.438-.044-.088-.103-.133-.181-.143h-.367c-.076.01-.098.055-.074.143.057.144.108.289.16.438.038.092.1.139.182.152h.384c.074-.013.098-.06.07-.152zm-2.213 5.19h.527c.107-.01.165-.068.177-.179 0-.088.002-.177.002-.27 0-.088-.002-.178-.002-.266-.012-.109-.07-.167-.177-.178h-.527c-.109.011-.167.069-.175.178v.266.27c.008.111.066.169.175.179zm.324-3.468h-.505c-.106.011-.154.064-.152.164.02.166.035.331.048.497.022.104.082.159.19.168h.516c.106-.009.155-.064.153-.168-.02-.166-.039-.331-.061-.497-.026-.1-.086-.153-.189-.164zm.587-5.663c.14.084.275.171.413.264.087.059.141.087.175.095h.112l.004-.002c-.004-.018-.056-.056-.11-.093-.137-.093-.279-.18-.422-.264-.09-.049-.149-.08-.178-.084h-.103c.006.015.033.038.109.084zm.666 13.427c-.052.149-.103.294-.16.438-.024.087-.002.133.074.143h.367c.078-.01.137-.056.181-.143.06-.144.12-.289.174-.438.028-.092.004-.141-.07-.149h-.384c-.082.008-.144.057-.182.149zm-11.85-11.411h.265c.064-.008.122-.048.183-.124.089-.123.178-.243.268-.36.054-.073.055-.11.008-.119h-.248c-.055.009-.115.047-.181.119-.097.117-.193.237-.287.36-.053.076-.055.116-.008.124zm12.398-.124c.062.076.119.116.18.124h.239c.042-.008.036-.048-.022-.124-.098-.123-.199-.243-.305-.36-.066-.072-.126-.11-.176-.119h-.221c-.044.009-.035.046.02.119.098.117.193.237.285.36zm-9.735-1.533h.253c.054-.008.108-.036.164-.095.079-.093.163-.18.241-.264.05-.054.051-.08.012-.084h-.219c-.052.004-.106.033-.166.084-.094.084-.185.171-.275.264-.052.058-.054.087-.01.095zm.81 1.054c-.075.009-.13.047-.168.119-.046.117-.094.237-.142.36-.02.076.004.116.08.124h.377c.082-.008.131-.048.163-.124.038-.123.078-.243.116-.36.018-.072-.01-.11-.078-.119zm-.29-2.261c.15-.058.305-.108.457-.154.125-.04.131-.043.135-.046h-.063c-.01.001-.054.007-.182.046-.161.046-.323.096-.478.154-.13.045-.13.05-.132.056h.082c.026-.004.08-.021.181-.056zm1.091.764c-.054.004-.102.033-.146.084-.06.084-.115.171-.173.264-.046.086.013.093.036.095h.283c.059-.008.105-.037.141-.095.048-.093.094-.18.14-.264.026-.054.016-.08-.034-.084zm-.861-.711.001.003h.123c.035-.004.083-.022.167-.056.127-.058.253-.108.382-.154.06-.023.084-.031.1-.043l-.003-.003h-.095c-.016.001-.064.013-.169.046-.136.046-.273.096-.406.154-.091.037-.095.045-.1.053zm-1.858 1.154h.199c.048-.008.108-.036.179-.095.108-.093.218-.18.332-.264.065-.054.083-.08.053-.084h-.177c-.042.004-.101.033-.18.084-.119.084-.239.171-.354.264-.072.058-.088.087-.052.095zm2.521-1.157.01.006h.152c.038-.004.08-.022.141-.056.094-.058.188-.108.279-.154.046-.023.058-.031.066-.043l-.006-.002-.002-.001h-.116c-.029.003-.079.019-.145.046-.105.046-.209.096-.315.154-.04.022-.061.037-.064.05zm-3.209 1.157c.038-.008.096-.036.182-.095.129-.093.264-.18.398-.264.072-.046.102-.069.102-.084h-.13c-.031.004-.091.033-.177.084-.144.084-.281.171-.418.264-.051.037-.1.075-.1.093l.008.002zm1.376 5.468c-.022.166-.038.331-.056.497-.003.104.048.159.143.168h.493c.105-.009.161-.064.181-.168.014-.166.028-.331.044-.497 0-.1-.048-.153-.146-.164h-.48c-.102.011-.157.064-.179.164zm6.059-6.675c.068.034.115.052.152.056h.147l.008-.003v-.003c-.006-.013-.03-.028-.074-.05-.114-.058-.225-.108-.343-.154-.087-.033-.131-.045-.151-.046h-.114l-.006.003c.008.012.026.02.07.043.106.046.209.096.311.154zm-5.625 4.941h.449c.095-.013.155-.06.177-.152.026-.149.055-.294.084-.438.005-.088-.031-.133-.116-.143h-.428c-.09.01-.148.055-.18.143-.036.144-.068.289-.104.438-.006.092.03.139.118.152zm.066 4.145h-.5c-.104.011-.158.069-.17.178-.002.088-.002.178-.002.266 0 .093 0 .182.002.27.012.111.066.169.17.179h.5c.106-.01.164-.068.173-.179 0-.088-.003-.177-.003-.27 0-.088.003-.178.003-.266-.009-.109-.067-.167-.173-.178zm2.852 7.115h-.404c-.08.007-.116.047-.116.124.016.122.036.243.054.36.022.072.068.11.143.116h.373c.076-.006.114-.044.118-.116-.01-.117-.015-.238-.024-.36-.013-.077-.06-.117-.144-.124zm1.228-15.353c.014.084.03.171.044.264.02.058.058.087.119.095h.309c.062-.008.086-.037.074-.095-.03-.093-.058-.18-.086-.264-.023-.051-.063-.08-.119-.084h-.268c-.055.004-.079.033-.073.084zm.484-1.002c.062.046.124.096.186.154.044.034.081.052.125.056h.178c.016-.003.044-.01-.02-.056-.074-.058-.15-.108-.228-.154-.048-.027-.089-.043-.121-.046h-.138c-.015.001-.027.012.018.046zm.334 3.018c.081-.008.123-.048.115-.124-.022-.123-.046-.243-.069-.36-.022-.072-.069-.11-.15-.119h-.379c-.078.009-.114.047-.114.119.014.117.024.237.04.36.016.076.066.116.15.124zm-.597 13.821c0 .072.036.11.114.116h.379c.081-.006.128-.044.15-.116.023-.117.047-.238.069-.36.008-.077-.034-.117-.115-.124h-.407c-.084.007-.134.047-.15.124-.016.122-.026.243-.04.36zm.174-12.334c.01.144.02.289.028.438.016.092.071.139.171.152h.488c.096-.013.146-.06.146-.152-.016-.149-.034-.294-.052-.438-.018-.088-.076-.133-.171-.143h-.467c-.092.01-.139.055-.143.143zm-.527-4.295h.187c.036-.006.049-.022.031-.056-.033-.058-.066-.108-.098-.154-.026-.028-.054-.043-.082-.046h-.141c-.028.003-.038.018-.028.046.016.046.036.096.054.154.014.034.042.052.077.056zm-1.805 0h.171c.038-.006.072-.022.11-.056.053-.058.107-.108.163-.154.03-.028.034-.043.01-.046h-.132c-.029.003-.067.019-.111.046-.07.046-.136.096-.204.154-.036.034-.042.05-.007.056zm-.013 7.284h.527c.105-.009.165-.064.18-.168.003-.166.003-.331.009-.497-.009-.1-.066-.153-.172-.164h-.511c-.106.011-.166.064-.18.164-.01.166-.014.331-.022.497.008.104.064.159.169.168zm.581-6.133h.303c.066-.008.097-.037.113-.095.008-.093.018-.18.03-.264 0-.051-.026-.08-.083-.084h-.261c-.057.004-.095.033-.115.084-.024.084-.045.171-.065.264-.008.058.02.087.078.095zm-.46 3.734h.48c.099-.013.153-.06.167-.152.004-.149.01-.294.016-.438-.006-.088-.056-.133-.148-.143h-.458c-.092.01-.145.055-.165.143-.013.144-.026.289-.038.438.002.092.049.139.146.152zm.651-2.68h-.373c-.075.009-.121.047-.143.119-.018.117-.038.237-.054.36 0 .076.036.116.116.124h.404c.084-.008.131-.048.144-.124.009-.123.014-.243.024-.36-.004-.072-.042-.11-.118-.119zm-.267 6.825h-.536c-.11.011-.17.069-.182.178v.266.27c.012.111.072.169.182.179h.536c.109-.01.169-.068.181-.179 0-.088 0-.177 0-.27 0-.088 0-.178 0-.266-.012-.109-.072-.167-.181-.178z"/><path d="m6.782 13.187 3.837-9.196 3.478 9.196zm5.747-12.021h-3.616l-8.439 19.431h3.217l2.051-4.915h9.368l1.898 4.915h3.219z"/><path d="m22.504 20.597h2.892v-19.435h-2.892z"/><path d="m75.522 3.656v-2.494h-12.466v19.435h12.446v-2.494h-9.561v-6.28h9.219v-2.493h-9.219v-5.674z"/><path d="m50.849 20.556v-7.528c0-2.073 1.515-3.494 3.15-3.494 1.968 0 3.161 1.327 3.161 3.494v7.528h2.692v-8.084c0-3.585-2.37-5.292-5.223-5.292-2.249 0-3.445 1.193-3.78 1.498v-7.666h-2.68v19.544z"/><path d="m43.537 15.896c-1.293 1.964-3.593 2.661-5.279 2.661-4.067 0-6.99-3.157-6.99-7.678 0-4.52 2.955-7.677 7.006-7.677 1.905 0 3.809.859 4.768 2.298l2.175-1.729c-1.69-2.138-4.126-3.063-7.001-3.063-5.786 0-9.906 4.258-9.906 10.171 0 6.286 4.529 10.173 10.019 10.173 3.094 0 5.675-1.194 7.394-3.547z" mask="url(#a)"/></g><g fill="#1a1919"><path d="m0 23.894h3.212v.601h-1.261v3.366h-.695v-3.366h-1.256z" mask="url(#a)"/><path d="m3.583 23.894h.634v1.473h.011c.155-.262.483-.457.861-.457.622 0 1.016.335 1.016.98v1.971h-.632v-1.806c-.012-.45-.19-.645-.562-.645-.423 0-.694.334-.694.756v1.695h-.634z"/><path d="m8.744 26.173c-.021-.401-.294-.763-.722-.763-.439 0-.739.334-.754.763zm-1.476.416c0 .45.244.849.771.849.367 0 .59-.161.7-.477h.601c-.14.628-.673.977-1.301.977-.899 0-1.405-.627-1.405-1.51 0-.817.534-1.518 1.388-1.518.907 0 1.461.819 1.356 1.679z"/><path d="m14.955 27.861h-.445l-.106-.467c-.371.422-.711.562-1.194.562-1.189 0-1.9-.945-1.9-2.079 0-1.133.711-2.077 1.9-2.077.867 0 1.595.461 1.7 1.355h-.678c-.066-.522-.521-.789-1.022-.789-.85 0-1.205.75-1.205 1.511 0 .762.355 1.512 1.205 1.512.711.01 1.1-.417 1.112-1.089h-1.056v-.528h1.689z"/><path d="m15.638 27.861h.633v-3.967h-.633z"/><path d="m19.094 26.422c0-.494-.249-1.012-.817-1.012-.566 0-.816.518-.816 1.012 0 .501.25 1.016.816 1.016.568 0 .817-.515.817-1.016zm-2.267 0c0-.878.528-1.512 1.45-1.512.923 0 1.45.634 1.45 1.512 0 .883-.527 1.516-1.45 1.516-.922 0-1.45-.633-1.45-1.516z"/><path d="m21.687 25.41c-.533 0-.805.406-.805 1.018 0 .577.295 1.01.805 1.01.579 0 .794-.511.794-1.01 0-.523-.271-1.018-.794-1.018zm-1.416-1.516h.632v1.466h.012c.172-.276.533-.45.855-.45.906 0 1.345.69 1.345 1.53 0 .771-.388 1.498-1.238 1.498-.39 0-.806-.093-.995-.472h-.012v.395h-.599z"/><path d="m25.421 26.422c-.194.128-.5.123-.778.172-.272.045-.517.145-.517.478 0 .283.361.366.584.366.278 0 .711-.144.711-.544zm.634.8c0 .156.033.216.149.216.039 0 .089 0 .155-.01v.438c-.094.034-.294.072-.399.072-.256 0-.44-.088-.488-.349-.251.245-.657.349-.995.349-.517 0-.985-.276-.985-.838 0-.716.573-.833 1.107-.895.456-.084.86-.032.86-.406 0-.326-.338-.389-.594-.389-.355 0-.605.145-.634.456h-.632c.044-.738.672-.956 1.305-.956.562 0 1.151.23 1.151.834z"/><path d="m26.754 27.861h.633v-3.967h-.633z"/><path d="m29.693 23.894h.694v1.579h1.805v-1.579h.695v3.967h-.695v-1.789h-1.805v1.789h-.694z"/><path d="m35.764 26.422c0-.494-.25-1.012-.817-1.012-.566 0-.816.518-.816 1.012 0 .501.25 1.016.816 1.016.567 0 .817-.515.817-1.016zm-2.267 0c0-.878.528-1.512 1.45-1.512.923 0 1.45.634 1.45 1.512 0 .883-.527 1.516-1.45 1.516-.922 0-1.45-.633-1.45-1.516z"/><path d="m36.925 24.989h.6v.4h.016c.189-.284.429-.479.884-.479.35 0 .679.151.805.479.211-.294.484-.479.9-.479.606 0 .962.268.962.967v1.984h-.633v-1.677c0-.455-.028-.774-.523-.774-.428 0-.611.283-.611.767v1.684h-.634v-1.845c0-.394-.122-.606-.505-.606-.328 0-.627.268-.627.745v1.706h-.634z"/><path d="m43.728 26.173c-.021-.401-.293-.763-.721-.763-.44 0-.739.334-.755.763zm-1.476.416c0 .45.243.849.772.849.367 0 .588-.161.7-.477h.6c-.139.628-.673.977-1.3.977-.9 0-1.406-.627-1.406-1.51 0-.817.533-1.518 1.389-1.518.905 0 1.461.819 1.355 1.679z"/><path d="m48.522 26.422c0-.494-.249-1.012-.816-1.012-.565 0-.816.518-.816 1.012 0 .501.251 1.016.816 1.016.567 0 .816-.515.816-1.016zm-2.266 0c0-.878.529-1.512 1.45-1.512.923 0 1.45.634 1.45 1.512 0 .883-.527 1.516-1.45 1.516-.921 0-1.45-.633-1.45-1.516z"/><path d="m49.401 24.989h.472v-.238c0-.735.384-.857.795-.857.2 0 .344.011.443.039v.496c-.082-.025-.166-.035-.294-.035-.172 0-.31.061-.31.3v.295h.538v.473h-.538v2.399h-.634v-2.399h-.472z"/><path d="m55.745 25.155c-.117-.456-.412-.789-.989-.789-.85 0-1.206.75-1.206 1.511 0 .762.356 1.512 1.206 1.512.616 0 .956-.462 1.012-1.04h.677c-.055.951-.728 1.607-1.689 1.607-1.189 0-1.9-.945-1.9-2.079 0-1.133.711-2.077 1.9-2.077.894.006 1.6.5 1.682 1.355z"/><path d="m56.989 23.894h.634v1.473h.011c.155-.262.483-.457.861-.457.622 0 1.016.335 1.016.98v1.971h-.633v-1.806c-.012-.45-.189-.645-.562-.645-.421 0-.693.334-.693.756v1.695h-.634z"/><path d="m62.149 26.173c-.021-.401-.294-.763-.721-.763-.44 0-.74.334-.756.763zm-1.477.416c0 .45.244.849.772.849.366 0 .589-.161.7-.477h.6c-.14.628-.672.977-1.3.977-.899 0-1.406-.627-1.406-1.51 0-.817.534-1.518 1.39-1.518.905 0 1.461.819 1.355 1.679z"/><path d="m63.266 24.989h.6v.4h.016c.189-.284.429-.479.885-.479.349 0 .677.151.805.479.21-.294.484-.479.899-.479.606 0 .962.268.962.967v1.984h-.633v-1.677c0-.455-.029-.774-.524-.774-.427 0-.61.283-.61.767v1.684h-.634v-1.845c0-.394-.122-.606-.506-.606-.327 0-.627.268-.627.745v1.706h-.633z"/><path d="m68.115 27.861h.633v-2.872h-.633zm0-3.366h.633v-.601h-.633z"/><path d="m71.376 25.949c-.05-.349-.306-.539-.655-.539-.328 0-.789.173-.789 1.045 0 .479.211.983.76.983.367 0 .622-.244.684-.655h.634c-.117.744-.578 1.155-1.318 1.155-.9 0-1.394-.638-1.394-1.483 0-.866.473-1.545 1.417-1.545.666 0 1.233.335 1.295 1.039z"/><path d="m74.298 26.422c-.194.128-.5.123-.778.172-.272.045-.517.145-.517.478 0 .283.361.366.584.366.278 0 .711-.144.711-.544zm.634.8c0 .156.033.216.149.216.039 0 .089 0 .155-.01v.438c-.094.034-.294.072-.399.072-.256 0-.44-.088-.488-.349-.251.245-.658.349-.995.349-.517 0-.985-.276-.985-.838 0-.716.573-.833 1.107-.895.456-.084.86-.032.86-.406 0-.326-.338-.389-.594-.389-.355 0-.605.145-.634.456h-.632c.044-.738.672-.956 1.305-.956.562 0 1.151.23 1.151.834z"/><path d="m75.632 27.861h.633v-3.967h-.633z"/><path d="m78.586 23.894h2.855v.601h-2.16v1.037h1.999v.568h-1.999v1.161h2.2v.6h-2.895z"/><g transform="translate(81 24)"><path d="m.997.989h.6v.421l.01.012c.19-.317.518-.512.896-.512.622 0 1.016.335 1.016.98v1.971h-.633v-1.806c-.012-.45-.189-.645-.562-.645-.422 0-.693.334-.693.756v1.695h-.634z" mask="url(#b)"/><path d="m6.208 2.36c0-.494-.223-.95-.772-.95-.561 0-.756.524-.756 1.001 0 .473.228.95.756.95.56 0 .772-.511.772-1.001zm.633 1.351c0 .861-.505 1.289-1.411 1.289-.578 0-1.228-.224-1.284-.895h.634c.077.361.366.422.689.422.51 0 .739-.26.739-.732v-.44h-.011c-.178.318-.506.506-.862.506-.91 0-1.289-.689-1.289-1.512 0-.771.483-1.439 1.3-1.439.361 0 .69.151.851.473h.011v-.394h.633z" mask="url(#b)"/></g><path d="m88.497 27.861h.633v-2.872h-.633zm0-3.366h.633v-.601h-.633z"/><path d="m89.818 24.989h.601v.421l.011.012c.188-.317.516-.512.894-.512.622 0 1.016.335 1.016.98v1.971h-.632v-1.806c-.013-.45-.189-.645-.563-.645-.421 0-.693.334-.693.756v1.695h-.634z"/><path d="m94.979 26.173c-.022-.401-.294-.763-.722-.763-.44 0-.739.334-.755.763zm-1.477.416c0 .45.243.849.77.849.369 0 .59-.161.702-.477h.599c-.139.628-.672.977-1.301.977-.898 0-1.404-.627-1.404-1.51 0-.817.533-1.518 1.389-1.518.905 0 1.461.819 1.355 1.679z"/><path d="m98.067 26.173c-.021-.401-.295-.763-.722-.763-.44 0-.739.334-.755.763zm-1.477.416c0 .45.244.849.772.849.367 0 .589-.161.7-.477h.6c-.14.628-.673.977-1.3.977-.9 0-1.406-.627-1.406-1.51 0-.817.534-1.518 1.389-1.518.906 0 1.461.819 1.356 1.679z"/><path d="m99.185 24.989h.594v.555h.011c.072-.306.45-.634.839-.634.143 0 .184.013.238.017v.612c-.088-.011-.182-.028-.271-.028-.433 0-.778.35-.778.983v1.367h-.633z"/><path d="m101.617 26.938c.033.367.312.5.651.5.239 0 .655-.049.638-.377-.017-.334-.477-.373-.938-.478-.468-.1-.923-.267-.923-.851 0-.627.678-.822 1.201-.822.588 0 1.121.245 1.199.885h-.661c-.056-.301-.305-.385-.584-.385-.183 0-.521.045-.521.295 0 .311.466.356.933.461.461.105.928.274.928.839 0 .683-.689.933-1.283.933-.723 0-1.262-.322-1.273-1z"/></g></g></svg>